# xmcd CD database file
#
# Track frame offsets:
#	150
#	20449
#	36025
#	56086
#	73745
#	94012
#	109890
#	124722
#	144975
#	163591
#	182630
#	199655
#
# Disc length: 2897 seconds
#
# Revision: 3
# Processed by: cddbd v1.4PL0 Copyright (c) Steve Scherf et al.
# Submitted via: CDex 1.40Beta9
#
DISCID=a30b4f0c
DTITLE=Anita Lipnicka - Moje Oczy Sa Zielone
DYEAR=2000
DGENRE=Pop
TTITLE0=Wracam
TTITLE1=Ballada dla Spiacej Krolewny
TTITLE2=Jestem powietrzem
TTITLE3=Moje oczy sa zielone
TTITLE4=Nie wazne dzis co bedzie jutro
TTITLE5=Sens w tym, ze wszystko przemija
TTITLE6=Porcelana
TTITLE7=Cala prawda o mnie
TTITLE8=Calma
TTITLE9=Nawet jesli
TTITLE10=Pokochaj siebie
TTITLE11=Ostatni list
EXTD=YEAR: 2000 ID3G: 13
EXTT0=
EXTT1=
EXTT2=
EXTT3=
EXTT4=
EXTT5=
EXTT6=
EXTT7=
EXTT8=
EXTT9=
EXTT10=
EXTT11=
PLAYORDER=
